<svg width="12" height="12" viewBox="0 0 12 12" fill="none" xmlns="http://www.w3.org/2000/svg">
<g clip-path="url(#clip0)">
<path d="M9.00006 5H8.37006C8.18299 4.2755 7.79646 3.61799 7.25438 3.1022C6.7123 2.5864 6.03641 2.233 5.30352 2.08214C4.57062 1.93128 3.8101 1.98902 3.10838 2.2488C2.40666 2.50857 1.79188 2.95997 1.33388 3.55169C0.875887 4.14341 0.59305 4.85174 0.517509 5.59618C0.441967 6.34062 0.576751 7.09132 0.906543 7.76298C1.23634 8.43465 1.74791 9.00034 2.38315 9.39578C3.01838 9.79122 3.75179 10.0006 4.50006 10H9.00006C9.6631 10 10.299 9.73661 10.7678 9.26777C11.2367 8.79893 11.5001 8.16304 11.5001 7.5C11.5001 6.83696 11.2367 6.20107 10.7678 5.73223C10.299 5.26339 9.6631 5 9.00006 5Z" stroke="black" stroke-linecap="round" stroke-linejoin="round"/>
</g>
<defs>
<clipPath id="clip0">
<rect width="12" height="12" fill="white"/>
</clipPath>
</defs>
</svg>
