<svg width="24" height="20" viewBox="0 0 24 20" fill="none" xmlns="http://www.w3.org/2000/svg">
<path d="M7.54771 19.4898C16.6048 19.4898 21.5577 11.9923 21.5577 5.49072C21.5577 5.27777 21.5534 5.06578 21.5438 4.85474C22.5053 4.16024 23.3409 3.29357 24 2.30697C23.1177 2.69882 22.1683 2.96261 21.1723 3.08156C22.1889 2.47243 22.9694 1.50887 23.3376 0.360199C22.3862 0.92376 21.3327 1.33336 20.2109 1.5545C19.3123 0.598158 18.0331 0 16.6166 0C13.8974 0 11.6924 2.20344 11.6924 4.91949C11.6924 5.30558 11.7356 5.68113 11.82 6.04136C7.72761 5.8356 4.09875 3.87776 1.67011 0.900735C1.24724 1.62784 1.0034 2.47246 1.0034 3.37368C1.0034 5.08067 1.8727 6.58761 3.19462 7.4692C2.38676 7.44426 1.62787 7.22266 0.964581 6.85383C0.963856 6.87447 0.963854 6.8946 0.963854 6.91667C0.963854 9.29948 2.66115 11.2889 4.91422 11.7397C4.50046 11.8525 4.06513 11.9129 3.61582 11.9129C3.29902 11.9129 2.99037 11.8817 2.69038 11.8242C3.31725 13.7791 5.13504 15.2017 7.29018 15.2415C5.60489 16.5614 3.48189 17.3475 1.17454 17.3475C0.777577 17.3475 0.38542 17.325 0 17.2794C2.17922 18.6751 4.76684 19.4895 7.54798 19.4895" fill="#1DA1F2"/>
</svg>
