<svg width="12" height="12" viewBox="0 0 12 12" fill="none" xmlns="http://www.w3.org/2000/svg">
<path d="M10.4201 2.305C10.1647 2.0495 9.86147 1.84682 9.52774 1.70854C9.19401 1.57026 8.8363 1.49908 8.47506 1.49908C8.11382 1.49908 7.75611 1.57026 7.42238 1.70854C7.08865 1.84682 6.78544 2.0495 6.53006 2.305L6.00006 2.835L5.47006 2.305C4.95421 1.78915 4.25458 1.49935 3.52506 1.49935C2.79554 1.49935 2.09591 1.78915 1.58006 2.305C1.06421 2.82084 0.774414 3.52048 0.774414 4.25C0.774414 4.97951 1.06421 5.67915 1.58006 6.195L2.11006 6.725L6.00006 10.615L9.89006 6.725L10.4201 6.195C10.6756 5.93962 10.8782 5.6364 11.0165 5.30268C11.1548 4.96895 11.226 4.61124 11.226 4.25C11.226 3.88875 11.1548 3.53105 11.0165 3.19732C10.8782 2.86359 10.6756 2.56038 10.4201 2.305V2.305Z" fill="#C90D0D" stroke="#C90D0D" stroke-linecap="round" stroke-linejoin="round"/>
</svg>
