<svg width="12" height="12" viewBox="0 0 12 12" fill="none" xmlns="http://www.w3.org/2000/svg">
<path d="M1.5 9V6C1.5 4.80653 1.97411 3.66193 2.81802 2.81802C3.66193 1.97411 4.80653 1.5 6 1.5C7.19347 1.5 8.33807 1.97411 9.18198 2.81802C10.0259 3.66193 10.5 4.80653 10.5 6V9" stroke="black" stroke-linecap="round" stroke-linejoin="round"/>
<path d="M10.5 9.5C10.5 9.76522 10.3946 10.0196 10.2071 10.2071C10.0196 10.3946 9.76522 10.5 9.5 10.5H9C8.73478 10.5 8.48043 10.3946 8.29289 10.2071C8.10536 10.0196 8 9.76522 8 9.5V8C8 7.73478 8.10536 7.48043 8.29289 7.29289C8.48043 7.10536 8.73478 7 9 7H10.5V9.5ZM1.5 9.5C1.5 9.76522 1.60536 10.0196 1.79289 10.2071C1.98043 10.3946 2.23478 10.5 2.5 10.5H3C3.26522 10.5 3.51957 10.3946 3.70711 10.2071C3.89464 10.0196 4 9.76522 4 9.5V8C4 7.73478 3.89464 7.48043 3.70711 7.29289C3.51957 7.10536 3.26522 7 3 7H1.5V9.5Z" stroke="black" stroke-linecap="round" stroke-linejoin="round"/>
</svg>
