<svg width="300" height="300" viewBox="0 0 300 300" fill="none" xmlns="http://www.w3.org/2000/svg">
<rect width="300" height="300" rx="20" fill="#007610"/>
<path d="M192.683 173.42H108.788C117.743 188.543 126.227 205.084 133.297 222.096H167.703C178.072 206.028 186.556 189.961 192.683 173.42ZM202.581 154.99V119.073H99.3621V154.99H202.581ZM56 241V222.569H112.558C105.489 207.446 98.4186 194.214 90.8777 183.344L105.488 173.893H80.0369V100.169H223.319V173.893H196.454L211.064 183.344C203.995 198.467 196.924 211.699 189.855 222.569H245V241H56ZM240.287 78.4306H61.6561V60H240.287V78.4306Z" fill="white"/>
</svg>
